<svg width="73" height="30" viewBox="0 0 73 30" fill="none" xmlns="http://www.w3.org/2000/svg">
<path d="M0 1.64062C1.17188 1.84896 2.13542 1.99219 2.89062 2.07031C3.64583 2.14844 4.25781 2.21354 4.72656 2.26562C5.27344 2.31771 5.70312 2.33073 6.01562 2.30469H7.1875C7.60417 2.30469 8.125 2.30469 8.75 2.30469C9.40104 2.27865 10.2083 2.26562 11.1719 2.26562C11.7188 3.54167 12.2135 4.71354 12.6562 5.78125C13.125 6.84896 13.5156 7.76042 13.8281 8.51562C14.1927 9.42708 14.5312 10.2474 14.8438 10.9766C15.2083 11.888 15.599 12.8906 16.0156 13.9844C16.4323 15.0781 16.8099 16.1068 17.1484 17.0703C17.513 18.0339 17.8125 18.8281 18.0469 19.4531C18.2812 20.0781 18.3984 20.3646 18.3984 20.3125C18.3984 20.2865 18.4115 20.026 18.4375 19.5312C18.4635 19.0104 18.4896 18.3724 18.5156 17.6172C18.5417 16.8359 18.5677 15.9896 18.5938 15.0781C18.6458 14.1406 18.6719 13.2422 18.6719 12.3828C18.6979 11.4974 18.7109 10.6901 18.7109 9.96094C18.7109 9.23177 18.6849 8.6849 18.6328 8.32031C18.5547 7.8776 18.3984 7.36979 18.1641 6.79688C17.9557 6.30208 17.6693 5.71615 17.3047 5.03906C16.9401 4.33594 16.4323 3.54167 15.7812 2.65625C16.849 2.68229 17.7214 2.69531 18.3984 2.69531C19.0755 2.69531 19.6224 2.69531 20.0391 2.69531C20.5078 2.69531 20.8724 2.68229 21.1328 2.65625C21.4714 2.65625 21.888 2.63021 22.3828 2.57812C22.8255 2.52604 23.3724 2.48698 24.0234 2.46094C24.7005 2.40885 25.5339 2.34375 26.5234 2.26562C25.9505 2.78646 25.4948 3.28125 25.1562 3.75C24.8177 4.21875 24.5443 4.63542 24.3359 5C24.1016 5.41667 23.9453 5.80729 23.8672 6.17188C23.763 6.64062 23.6719 7.40885 23.5938 8.47656C23.5417 9.51823 23.4766 10.6901 23.3984 11.9922C23.3464 13.2943 23.2943 14.6484 23.2422 16.0547C23.1901 17.4609 23.138 18.75 23.0859 19.9219C23.0859 20.8073 23.0599 21.7578 23.0078 22.7734C22.9557 23.6328 22.9036 24.6094 22.8516 25.7031C22.7995 26.7708 22.7344 27.8516 22.6562 28.9453L19.1797 29.0234C18.1641 27.2266 17.3047 25.6901 16.6016 24.4141C15.9245 23.112 15.3646 22.0443 14.9219 21.2109C14.4271 20.2474 14.0104 19.4401 13.6719 18.7891C13.3854 18.1641 13.0078 17.4479 12.5391 16.6406C12.1484 15.9635 11.6536 15.1302 11.0547 14.1406C10.4818 13.151 9.79167 12.0182 8.98438 10.7422C8.90625 12.5391 8.86719 14.0755 8.86719 15.3516C8.89323 16.6016 8.93229 17.6432 8.98438 18.4766C9.0625 19.4401 9.15365 20.2474 9.25781 20.8984C9.38802 21.5234 9.57031 22.2266 9.80469 23.0078C10.013 23.6849 10.2604 24.4792 10.5469 25.3906C10.8594 26.3021 11.237 27.3307 11.6797 28.4766C10.1432 28.3984 8.9974 28.3594 8.24219 28.3594H7.07031C6.70573 28.3594 6.21094 28.3984 5.58594 28.4766C5.0651 28.5286 4.34896 28.6068 3.4375 28.7109C2.55208 28.8151 1.44531 28.9583 0.117188 29.1406C0.742188 28.3854 1.23698 27.6953 1.60156 27.0703C1.99219 26.4193 2.29167 25.8724 2.5 25.4297C2.76042 24.9089 2.94271 24.4531 3.04688 24.0625C3.125 23.6458 3.17708 22.9297 3.20312 21.9141C3.22917 20.8724 3.22917 19.7005 3.20312 18.3984C3.20312 17.0703 3.17708 15.6771 3.125 14.2188C3.09896 12.7604 3.0599 11.4062 3.00781 10.1562C2.95573 8.90625 2.89062 7.83854 2.8125 6.95312C2.76042 6.06771 2.72135 5.52083 2.69531 5.3125C2.61719 4.97396 2.46094 4.60938 2.22656 4.21875C2.01823 3.88021 1.74479 3.5026 1.40625 3.08594C1.06771 2.64323 0.598958 2.16146 0 1.64062ZM25.1562 0.820312C26.901 1.02865 28.4115 1.1849 29.6875 1.28906C30.9635 1.36719 32.0182 1.43229 32.8516 1.48438C33.8151 1.53646 34.6224 1.54948 35.2734 1.52344C35.9505 1.4974 36.875 1.43229 38.0469 1.32812C39.0365 1.25 40.3385 1.14583 41.9531 1.01562C43.5677 0.859375 45.5859 0.651042 48.0078 0.390625C48.0339 0.989583 48.0469 1.57552 48.0469 2.14844C48.0729 2.69531 48.099 3.17708 48.125 3.59375C48.151 4.08854 48.1641 4.54427 48.1641 4.96094C48.1641 5.40365 48.138 5.96354 48.0859 6.64062C48.0339 7.21354 47.9427 7.94271 47.8125 8.82812C47.7083 9.6875 47.5391 10.7161 47.3047 11.9141C46.9401 10.5078 46.5885 9.375 46.25 8.51562C45.9115 7.63021 45.599 6.92708 45.3125 6.40625C45 5.80729 44.6875 5.35156 44.375 5.03906C44.0365 4.80469 43.6328 4.60938 43.1641 4.45312C42.7474 4.32292 42.2135 4.21875 41.5625 4.14062C40.9375 4.0625 40.1953 4.07552 39.3359 4.17969C39.2057 7.61719 39.1146 10.4036 39.0625 12.5391C39.0104 14.6745 38.9714 16.3411 38.9453 17.5391C38.9193 18.9714 38.9062 20 38.9062 20.625C38.9323 21.5104 39.0755 22.3828 39.3359 23.2422C39.5443 23.9714 39.8828 24.7266 40.3516 25.5078C40.8203 26.2891 41.4974 26.9792 42.3828 27.5781H37.6172C37.1745 27.5781 36.6276 27.6042 35.9766 27.6562C35.4297 27.7083 34.7266 27.7604 33.8672 27.8125C33.0339 27.8646 32.0573 27.9557 30.9375 28.0859C31.3281 27.4089 31.6406 26.7969 31.875 26.25C32.1094 25.7031 32.2917 25.2344 32.4219 24.8438C32.5781 24.375 32.6953 23.9583 32.7734 23.5938C32.7995 23.0729 32.8646 22.0182 32.9688 20.4297C32.9948 19.7786 33.0208 18.9714 33.0469 18.0078C33.099 17.0443 33.151 15.8984 33.2031 14.5703C33.2812 13.2422 33.3464 11.7188 33.3984 10C33.4766 8.25521 33.5547 6.28906 33.6328 4.10156C33.1641 3.97135 32.7214 3.98438 32.3047 4.14062C31.888 4.27083 31.5234 4.4401 31.2109 4.64844C30.8464 4.90885 30.4948 5.22135 30.1562 5.58594C29.8177 6.02865 29.4401 6.60156 29.0234 7.30469C28.6589 7.90365 28.2422 8.69792 27.7734 9.6875C27.3047 10.651 26.7708 11.849 26.1719 13.2812C26.0417 11.7708 25.9505 10.5339 25.8984 9.57031C25.8464 8.58073 25.8073 7.8125 25.7812 7.26562C25.7552 6.61458 25.7422 6.13281 25.7422 5.82031C25.7422 5.53385 25.7161 5.15625 25.6641 4.6875C25.612 4.29688 25.5469 3.78906 25.4688 3.16406C25.3906 2.51302 25.2865 1.73177 25.1562 0.820312ZM45.5859 0.820312C46.4193 0.950521 47.1745 1.06771 47.8516 1.17188C48.5286 1.25 49.1146 1.3151 49.6094 1.36719C50.1823 1.44531 50.6901 1.51042 51.1328 1.5625C51.6797 1.64062 52.5 1.54948 53.5938 1.28906C54.6875 1.0026 55.8854 0.742188 57.1875 0.507812C58.5156 0.247396 59.8698 0.104167 61.25 0.078125C62.6302 0.0260417 63.8932 0.273438 65.0391 0.820312C66.1849 1.36719 67.1224 1.91406 67.8516 2.46094C68.5807 3.00781 69.1536 3.59375 69.5703 4.21875C70.013 4.81771 70.3255 5.45573 70.5078 6.13281C70.6901 6.8099 70.7943 7.55208 70.8203 8.35938C70.7943 9.55729 70.5078 10.7161 69.9609 11.8359C69.7266 12.3047 69.4141 12.7995 69.0234 13.3203C68.6589 13.8151 68.2031 14.2969 67.6562 14.7656C67.1094 15.2344 66.4583 15.6771 65.7031 16.0938C64.974 16.5104 64.1146 16.875 63.125 17.1875C64.0885 17.474 64.8828 17.8125 65.5078 18.2031C66.1589 18.5938 66.6797 18.9583 67.0703 19.2969C67.5391 19.7135 67.8906 20.1172 68.125 20.5078C68.4115 21.0547 68.6068 21.5234 68.7109 21.9141C68.8151 22.3047 68.8802 22.6823 68.9062 23.0469C68.9583 23.3854 69.0234 23.737 69.1016 24.1016C69.1797 24.4661 69.349 24.8828 69.6094 25.3516C69.8177 25.7161 70.0651 26.0938 70.3516 26.4844C70.612 26.8229 70.9115 27.1875 71.25 27.5781C71.6146 27.9688 72.0573 28.3464 72.5781 28.7109C71.849 28.737 71.1719 28.75 70.5469 28.75C69.9479 28.75 69.4271 28.75 68.9844 28.75C68.4635 28.75 67.9688 28.737 67.5 28.7109C67.0312 28.6849 66.4453 28.6719 65.7422 28.6719C65.1432 28.6719 64.375 28.6719 63.4375 28.6719C62.526 28.6719 61.4193 28.6849 60.1172 28.7109C60.6901 28.2682 61.1589 27.8255 61.5234 27.3828C61.888 26.9401 62.1745 26.5365 62.3828 26.1719C62.6172 25.7552 62.7865 25.3516 62.8906 24.9609C63.0208 24.2578 63.0339 23.5286 62.9297 22.7734C62.8516 22.1224 62.6432 21.4062 62.3047 20.625C61.9661 19.8177 61.4193 19.0104 60.6641 18.2031C59.9089 18.3333 59.2708 18.4375 58.75 18.5156C58.2552 18.5677 57.8255 18.6198 57.4609 18.6719C57.0443 18.724 56.7057 18.763 56.4453 18.7891C56.2109 18.8151 55.9505 18.8411 55.6641 18.8672C55.4297 18.8932 55.1693 18.9323 54.8828 18.9844C54.6224 19.0104 54.375 19.0495 54.1406 19.1016C54.0885 20.2214 54.0885 21.1979 54.1406 22.0312C54.1927 22.8385 54.2578 23.5156 54.3359 24.0625C54.4401 24.7135 54.5573 25.2734 54.6875 25.7422C54.8177 26.2109 55 26.6667 55.2344 27.1094C55.4167 27.474 55.651 27.8646 55.9375 28.2812C56.224 28.6719 56.5495 28.9974 56.9141 29.2578C56.237 29.2578 55.5859 29.2578 54.9609 29.2578C54.362 29.2578 53.8151 29.2448 53.3203 29.2188C52.7474 29.2188 52.2005 29.2057 51.6797 29.1797C51.1589 29.1536 50.5729 29.1406 49.9219 29.1406C49.375 29.1406 48.724 29.1406 47.9688 29.1406C47.2396 29.1406 46.4453 29.1536 45.5859 29.1797C46.263 28.4766 46.7969 27.8776 47.1875 27.3828C47.5781 26.888 47.8776 26.4714 48.0859 26.1328C48.3203 25.7682 48.4635 25.4557 48.5156 25.1953C48.5677 24.7786 48.6068 24.0365 48.6328 22.9688C48.6849 21.875 48.724 20.625 48.75 19.2188C48.776 17.8125 48.7891 16.3411 48.7891 14.8047C48.7891 13.2682 48.776 11.8359 48.75 10.5078C48.724 9.15365 48.6979 7.99479 48.6719 7.03125C48.6458 6.06771 48.6198 5.45573 48.5938 5.19531C48.5156 4.72656 48.3464 4.25781 48.0859 3.78906C47.8776 3.3724 47.5781 2.90365 47.1875 2.38281C46.7969 1.86198 46.263 1.34115 45.5859 0.820312ZM60.3516 14.5703C60.612 14.4141 60.8333 14.2578 61.0156 14.1016C61.1979 13.9453 61.3542 13.6979 61.4844 13.3594C61.6146 12.9948 61.7188 12.487 61.7969 11.8359C61.901 11.1849 62.0182 10.2995 62.1484 9.17969C62.2526 8.0599 62.1745 7.13542 61.9141 6.40625C61.6797 5.67708 61.3542 5.10417 60.9375 4.6875C60.5469 4.24479 60.1042 3.94531 59.6094 3.78906C59.1406 3.60677 58.724 3.51562 58.3594 3.51562C57.6302 3.51562 56.9141 3.73698 56.2109 4.17969C55.5078 4.6224 54.974 5.22135 54.6094 5.97656C54.4792 6.3151 54.362 6.875 54.2578 7.65625C54.1797 8.33333 54.1276 9.27083 54.1016 10.4688C54.0755 11.6667 54.1146 13.2422 54.2188 15.1953C55.2083 15.3516 56.0807 15.4167 56.8359 15.3906C57.5911 15.3385 58.2292 15.2474 58.75 15.1172C59.375 14.987 59.9089 14.8047 60.3516 14.5703Z" fill="white"/>
</svg>
