<svg width="27" height="28" viewBox="0 0 27 28" fill="none" xmlns="http://www.w3.org/2000/svg">
<path d="M0 0C1.17188 0.208333 2.13542 0.351562 2.89062 0.429688C3.64583 0.507812 4.25781 0.572917 4.72656 0.625C5.27344 0.677083 5.70312 0.690104 6.01562 0.664062H7.1875C7.60417 0.664062 8.125 0.664062 8.75 0.664062C9.40104 0.638021 10.2083 0.625 11.1719 0.625C11.7188 1.90104 12.2135 3.07292 12.6562 4.14062C13.125 5.20833 13.5156 6.11979 13.8281 6.875C14.1927 7.78646 14.5312 8.60677 14.8438 9.33594C15.2083 10.2474 15.599 11.25 16.0156 12.3438C16.4323 13.4375 16.8099 14.4661 17.1484 15.4297C17.513 16.3932 17.8125 17.1875 18.0469 17.8125C18.2812 18.4375 18.3984 18.724 18.3984 18.6719C18.3984 18.6458 18.4115 18.3854 18.4375 17.8906C18.4635 17.3698 18.4896 16.7318 18.5156 15.9766C18.5417 15.1953 18.5677 14.349 18.5938 13.4375C18.6458 12.5 18.6719 11.6016 18.6719 10.7422C18.6979 9.85677 18.7109 9.04948 18.7109 8.32031C18.7109 7.59115 18.6849 7.04427 18.6328 6.67969C18.5547 6.23698 18.3984 5.72917 18.1641 5.15625C17.9557 4.66146 17.6693 4.07552 17.3047 3.39844C16.9401 2.69531 16.4323 1.90104 15.7812 1.01562C16.849 1.04167 17.7214 1.05469 18.3984 1.05469C19.0755 1.05469 19.6224 1.05469 20.0391 1.05469C20.5078 1.05469 20.8724 1.04167 21.1328 1.01562C21.4714 1.01562 21.888 0.989583 22.3828 0.9375C22.8255 0.885417 23.3724 0.846354 24.0234 0.820312C24.7005 0.768229 25.5339 0.703125 26.5234 0.625C25.9505 1.14583 25.4948 1.64062 25.1562 2.10938C24.8177 2.57812 24.5443 2.99479 24.3359 3.35938C24.1016 3.77604 23.9453 4.16667 23.8672 4.53125C23.763 5 23.6719 5.76823 23.5938 6.83594C23.5417 7.8776 23.4766 9.04948 23.3984 10.3516C23.3464 11.6536 23.2943 13.0078 23.2422 14.4141C23.1901 15.8203 23.138 17.1094 23.0859 18.2812C23.0859 19.1667 23.0599 20.1172 23.0078 21.1328C22.9557 21.9922 22.9036 22.9688 22.8516 24.0625C22.7995 25.1302 22.7344 26.2109 22.6562 27.3047L19.1797 27.3828C18.1641 25.5859 17.3047 24.0495 16.6016 22.7734C15.9245 21.4714 15.3646 20.4036 14.9219 19.5703C14.4271 18.6068 14.0104 17.7995 13.6719 17.1484C13.3854 16.5234 13.0078 15.8073 12.5391 15C12.1484 14.3229 11.6536 13.4896 11.0547 12.5C10.4818 11.5104 9.79167 10.3776 8.98438 9.10156C8.90625 10.8984 8.86719 12.4349 8.86719 13.7109C8.89323 14.9609 8.93229 16.0026 8.98438 16.8359C9.0625 17.7995 9.15365 18.6068 9.25781 19.2578C9.38802 19.8828 9.57031 20.5859 9.80469 21.3672C10.013 22.0443 10.2604 22.8385 10.5469 23.75C10.8594 24.6615 11.237 25.6901 11.6797 26.8359C10.1432 26.7578 8.9974 26.7188 8.24219 26.7188H7.07031C6.70573 26.7188 6.21094 26.7578 5.58594 26.8359C5.0651 26.888 4.34896 26.9661 3.4375 27.0703C2.55208 27.1745 1.44531 27.3177 0.117188 27.5C0.742188 26.7448 1.23698 26.0547 1.60156 25.4297C1.99219 24.7786 2.29167 24.2318 2.5 23.7891C2.76042 23.2682 2.94271 22.8125 3.04688 22.4219C3.125 22.0052 3.17708 21.2891 3.20312 20.2734C3.22917 19.2318 3.22917 18.0599 3.20312 16.7578C3.20312 15.4297 3.17708 14.0365 3.125 12.5781C3.09896 11.1198 3.0599 9.76562 3.00781 8.51562C2.95573 7.26562 2.89062 6.19792 2.8125 5.3125C2.76042 4.42708 2.72135 3.88021 2.69531 3.67188C2.61719 3.33333 2.46094 2.96875 2.22656 2.57812C2.01823 2.23958 1.74479 1.86198 1.40625 1.44531C1.06771 1.0026 0.598958 0.520833 0 0Z" fill="#FFAA00"/>
</svg>
